<svg width="128" height="128" fill="none" xmlns="http://www.w3.org/2000/svg"><g clip-path="url(#a)" stroke="#fff"><path d="m56.789 10.071-35.81 20.762A14 14 0 0 0 14 42.944v41.294a14 14 0 0 0 6.908 12.071l35.811 21.039a14 14 0 0 0 14.183 0l35.811-21.039a14 14 0 0 0 6.908-12.07V42.943a14 14 0 0 0-6.978-12.111L70.833 10.07a14 14 0 0 0-14.044 0Z"/><path d="M59.032 28.084 33.502 42.84a8 8 0 0 0-3.997 6.926V79.07a8 8 0 0 0 3.957 6.903l25.53 14.954a7.998 7.998 0 0 0 8.087 0l25.53-14.954a8 8 0 0 0 3.956-6.903V49.767a8 8 0 0 0-3.996-6.926l-25.53-14.757a8 8 0 0 0-8.007 0Z" fill="#22c55e"/><path d="m15.873 36.314 47.602 27.747 47.919-28.094" stroke-opacity=".4" stroke-width=".75" stroke-linecap="round" stroke-linejoin="bevel"/><path d="M63.633 64.061v55.253" stroke-opacity=".4" stroke-width=".75" stroke-linecap="round"/></g><defs><clipPath id="a"><path fill="#fff" d="M0 0h128v128H0z"/></clipPath></defs><script/></svg>